# xmcd
#
# Track frame offsets: 
#        150
#        13202
#        26346
#        37764
#        50817
#        63220
#        74937
#        88127
#        101374
#        121894
#        135274
#
# Disc length: 1927 seconds
#
# Revision: 0
# Processed by: cddbd v1.5.2PL0 Copyright (c) Steve Scherf et al.
# Submitted via: ExactAudioCopy v0.99pb4
#
DISCID=9007850b
DTITLE=The Saddle Tramps - Don`t Laugh It`s Prayed For - Songs Of Sacr
DTITLE=ilege And Salvation
DYEAR=2007
DGENRE=Country
TTITLE0=Snow On The Hills Of Hell
TTITLE1=The Bulge In Satans Pants
TTITLE2=What Would Jesus Drink?
TTITLE3=Shit Creek
TTITLE4=Run
TTITLE5=If You Leave (Can I Go Too?)
TTITLE6=Mexican Hot Rod
TTITLE7=Fortune Cookie Nookie
TTITLE8=The Cotton Pony Express
TTITLE9=How Can I Say I Love You (With A Shotgun In My Mouth?)
TTITLE10=Bonus Track(When Eagles Dare)
EXTD=
EXTT0=
EXTT1=
EXTT2=
EXTT3=
EXTT4=
EXTT5=
EXTT6=
EXTT7=
EXTT8=
EXTT9=
EXTT10=
PLAYORDER=
